<?xml version="1.0"?>
<svg xmlns="http://www.w3.org/2000/svg" xmlns:xlink="http://www.w3.org/1999/xlink" version="1.1" id="Capa_1" x="0px" y="0px" viewBox="0 0 512.005 512.005" style="enable-background:new 0 0 512.005 512.005;" xml:space="preserve" width="512px" height="512px" class=""><g><g transform="translate(-1)">
	<g transform="translate(1)">
		<path style="fill:#2296F3" d="M492.984,489.05c-4.261,8.844-13.223,14.454-23.04,14.421H42.083    c-7.989,0.016-15.527-3.699-20.381-10.043c-4.855-6.344-6.469-14.591-4.365-22.298l22.955-84.053l12.288-45.141L80.227,240.73    c3.036-11.122,13.132-18.843,24.661-18.859h302.251c11.529,0.016,21.625,7.736,24.661,18.859l10.837,39.68l14.848,54.272    l37.205,136.448C496.348,477.109,495.74,483.49,492.984,489.05z" data-original="#2E7D32" class="" data-old_color="#2E7D32"/>
		<path style="fill:#2C6A77" d="M469.176,481.114c-0.422,2.755-1.256,5.43-2.475,7.936c-4.261,8.844-13.223,14.454-23.04,14.421    H42.083c-7.989,0.016-15.527-3.699-20.381-10.043c-4.855-6.344-6.469-14.591-4.365-22.298l22.955-84.053l12.288-45.141    L80.227,240.73c3.036-11.122,13.132-18.843,24.661-18.859h275.968c11.529,0.016,21.625,7.736,24.661,18.859l10.837,39.68    l6.485,23.723l8.363,30.549l6.485,23.808l30.72,112.64C469.292,474.379,469.553,477.767,469.176,481.114z" data-original="#4CAF50" class="" data-old_color="#4CAF50"/>
		<path style="fill:#2296F3;" d="M150.115,423.77L83.64,503.471H42.083c-7.989,0.016-15.527-3.699-20.381-10.043    c-4.855-6.344-6.469-14.591-4.365-22.298l22.955-84.053L150.115,423.77z" data-original="#2296F3" class=""/>
		<path style="fill:#1566C0;" d="M492.984,489.05l-20.992-6.997l-62.464-20.907h-0.085l-44.885-14.933l75.435-90.539l17.493-20.992    l37.205,136.448C496.348,477.109,495.74,483.49,492.984,489.05z" data-original="#1566C0" class=""/>
		<path style="fill:#2296F3;" d="M471.992,482.052l-62.464-20.907h-0.085l-44.885-14.933l75.435-90.539L471.48,471.13    C472.452,474.689,472.627,478.418,471.992,482.052z" data-original="#2296F3" class=""/>
		<path style="fill:#FDD834" d="M492.984,489.05c-4.261,8.844-13.223,14.454-23.04,14.421h-81.323l-103.168-34.475l-88.405-29.525    l-5.12,6.144l-48.213,57.856H83.64l66.475-79.701L40.291,387.076l10.325-37.888l1.963-7.253l194.475,65.024l7.168,2.389    l44.8,15.019l18.517,6.144L422.84,304.132l1.963-2.389l17.835-21.333l14.848,54.272l-19.797,23.808l-73.131,87.723l44.885,14.933    h0.085l59.648,19.968L492.984,489.05z" data-original="#FDD834" class=""/>
		<path style="fill:#C8BD58" d="M469.347,489.05c-4.261,8.844-13.223,14.454-23.04,14.421h-81.323l-103.168-34.475l-69.888-23.381    l-18.517-6.144l-53.333,64H83.64l66.475-79.701L40.291,387.076l10.325-37.888l172.8,57.771l7.168,2.389l63.317,21.163l5.12-6.144    l18.517,6.144L422.84,304.132l1.963-2.389l9.045,32.939l-19.797,23.808l-73.131,87.723l44.885,14.933h0.085l59.648,19.968    L469.347,489.05z" data-original="#FFEB3A" class="active-path" data-old_color="#FFEB3A"/>
		<path style="fill:#C52828;" d="M392.547,145.071c0,103.68-89.515,218.539-123.563,258.475c-3.235,3.723-7.915,5.875-12.847,5.908    c-4.932,0.033-9.64-2.057-12.924-5.737l-0.256-0.256c-35.755-41.984-132.352-166.144-122.795-273.408    c6.622-64.513,58.106-115.245,122.709-120.917h0.171c5.075-0.499,10.176-0.698,15.275-0.597    C332.822,9.795,392.558,70.556,392.547,145.071z" data-original="#C52828" class=""/>
		<path style="fill:#F44335;" d="M366.947,145.071c0,103.68-89.515,218.539-123.563,258.475l-0.171,0.171l-0.256-0.256    c-35.755-41.984-132.352-166.144-122.795-273.408c6.622-64.513,58.106-115.245,122.709-120.917h0.171    C313.248,15.657,366.941,74.563,366.947,145.071z" data-original="#F44335" class=""/>
		<path style="fill:#FDD834" d="M356.878,177.668c-2.975,6.155-9.207,10.067-16.043,10.069H171.022    c-2.31,0.05-4.545-0.822-6.21-2.423c-1.665-1.601-2.624-3.8-2.665-6.11v-42.667h188.416c0.939,3.925,1.877,7.765,2.816,11.691    C355.512,157.018,361.059,168.879,356.878,177.668z" data-original="#FDD834" class=""/>
		<path style="fill:#C8BD58" d="M331.278,177.668c-2.975,6.155-9.207,10.067-16.043,10.069H171.022    c-2.31,0.05-4.545-0.822-6.21-2.423c-1.665-1.601-2.624-3.8-2.665-6.11v-42.667h162.816c0.939,3.925,1.877,7.765,2.816,11.691    C329.912,157.018,335.459,168.879,331.278,177.668z" data-original="#FFEB3A" class="active-path" data-old_color="#FFEB3A"/>
		<path style="fill:#1566C0;" d="M350.563,136.538h-60.416V93.871h35.925c6.321-0.103,12.175,3.317,15.189,8.875    c1.842,3.735,3.19,7.693,4.011,11.776C346.979,121.86,348.771,129.199,350.563,136.538z" data-original="#1566C0" class=""/>
		<g>
			<path style="fill:#2296F3;" d="M324.963,136.538h-60.416V93.871h35.925c6.321-0.103,12.175,3.317,15.189,8.875     c1.842,3.735,3.19,7.693,4.011,11.776C321.379,121.86,323.171,129.199,324.963,136.538z" data-original="#2296F3" class=""/>
			<rect x="247.48" y="93.871" style="fill:#2296F3;" width="42.667" height="42.667" data-original="#2296F3" class=""/>
			<path style="fill:#2296F3;" d="M204.814,93.871v42.667h-42.667v-34.133c0.04-2.31,0.999-4.509,2.665-6.11     c1.665-1.601,3.9-2.473,6.21-2.423H204.814z" data-original="#2296F3" class=""/>
			<rect x="204.814" y="93.871" style="fill:#2296F3;" width="42.667" height="42.667" data-original="#2296F3" class=""/>
		</g>
		<g>
			<circle style="fill:#607D8B" cx="217.614" cy="192.004" r="21.333" data-original="#607D8B" class=""/>
			<circle style="fill:#607D8B" cx="302.947" cy="192.004" r="21.333" data-original="#607D8B" class=""/>
		</g>
	</g>
	<g>
		<path d="M500.623,494.349c0.273-0.381,0.516-0.783,0.725-1.203c3.845-7.486,4.758-16.137,2.56-24.26l-62.848-230.4    c-4.067-14.838-17.545-25.13-32.93-25.148h-16.845c6.856-22.12,10.491-45.111,10.795-68.267    C401.747,66.048,338.486,1.693,259.48,0.004h-2.466c-74.257-0.567-136.775,55.411-144.384,129.28    c-1.945,28.401,1.471,56.915,10.069,84.053h-16.802c-15.382,0.021-28.855,10.313-32.922,25.148L45.498,339.179v0.06    L10.127,468.885c-2.801,10.266-0.655,21.25,5.805,29.706c6.46,8.456,16.493,13.416,27.134,13.413h427.895    c10.648,0.039,20.695-4.929,27.127-13.414C499.034,497.238,499.881,495.821,500.623,494.349z M487.968,478.042l-74.726-24.986    c-0.205-0.068-0.41-0.128-0.631-0.179l-32.486-10.846l74.411-89.301l32.879,120.653C487.813,474.902,488,476.47,487.968,478.042z     M408.131,230.404c7.695,0.002,14.437,5.154,16.461,12.578l9.643,35.371L315.715,420.57l-38.212-12.8    c27.921-32.862,81.263-101.914,108.177-177.365H408.131z M129.628,130.786c6.799-65.076,61.959-114.316,127.386-113.715h2.202    c69.701,1.503,125.505,58.283,125.798,128c-0.435,24.936-4.857,49.643-13.099,73.182c-0.149,0.372-0.272,0.754-0.367,1.143    c-25.446,75.546-80.538,146.27-108.083,178.577c-1.591,1.889-3.939,2.974-6.409,2.961c-0.068,0-0.128-0.043-0.205-0.043    l-4.318-1.442c-0.758-0.418-1.448-0.947-2.048-1.57C219.783,361.86,120.31,236.139,129.628,130.786z M89.436,242.974    c2.027-7.421,8.768-12.568,16.461-12.57h22.391c22.426,62.908,63.283,121.421,92.74,158.515L63.956,336.405L89.436,242.974z     M29.498,488.23c-3.241-4.221-4.309-9.72-2.884-14.848l20.548-75.349l89.412,29.867l-55.927,67.038H43.1    C37.763,494.966,32.725,492.481,29.498,488.23z M200.873,449.412l136.277,45.525H162.934L200.873,449.412z M390.987,494.938    l-190.293-63.565h-0.119c-0.66-0.159-1.335-0.242-2.014-0.247c-0.423-0.077-0.851-0.125-1.28-0.145    c-0.522,0.092-1.033,0.235-1.527,0.427c-0.545,0.104-1.079,0.259-1.596,0.461c-0.328,0.222-0.641,0.464-0.939,0.725    c-0.622,0.374-1.196,0.824-1.707,1.34l-0.094,0.077l-50.705,60.928h-37.845l54.793-65.707c0.032-0.052,0.06-0.106,0.085-0.162    c0.636-0.759,1.13-1.626,1.459-2.56v-0.102c0.199-0.754,0.294-1.532,0.282-2.313c0-0.341,0.128-0.674,0.102-0.998    c-0.098-0.583-0.256-1.155-0.469-1.707c-0.095-0.49-0.235-0.97-0.418-1.434c-0.2-0.338-0.426-0.66-0.674-0.964    c-0.379-0.626-0.838-1.199-1.365-1.707l-0.077-0.094c-0.411-0.277-0.849-0.515-1.306-0.708c-0.453-0.334-0.939-0.62-1.451-0.853    L51.651,381.495l7.817-28.646l185.796,62.114c2.37,1.251,4.926,2.116,7.569,2.56l62.848,21.009l0.145,0.043    c0.871,0.299,1.785,0.452,2.705,0.452c1.096-0.024,2.178-0.262,3.183-0.7c0.266-0.115,0.526-0.246,0.777-0.393    c0.837-0.433,1.591-1.011,2.227-1.707c0.111-0.111,0.265-0.154,0.375-0.282l114.628-137.498l9.335,34.227l-90.061,108.075    c-0.303,0.452-0.563,0.932-0.777,1.434c-0.297,0.42-0.552,0.869-0.759,1.34v0.102c-0.193,0.735-0.285,1.493-0.273,2.253    c-0.058,0.35-0.095,0.704-0.111,1.058c0.096,0.584,0.253,1.156,0.469,1.707c0.099,0.501,0.242,0.992,0.427,1.468    c0.215,0.325,0.452,0.636,0.708,0.93c0.377,0.625,0.833,1.198,1.357,1.707l0.068,0.085c0.805,0.665,1.724,1.177,2.714,1.51h0.06    l44.894,14.933c0.196,0.068,0.393,0.119,0.597,0.171l70.511,23.535c-2.428,1.282-5.131,1.952-7.876,1.954H390.987z" data-original="#000000" class=""/>
		<path d="M274.516,196.271c2.038,14.697,14.602,25.64,29.44,25.64c14.838,0,27.402-10.943,29.44-25.64h8.457    c10.143,0.035,19.395-5.785,23.757-14.942c3.265-9.621,2.805-20.116-1.289-29.414c-0.606-1.997-1.195-3.917-1.63-5.7l-1.34-5.521    c-2.278-9.387-4.548-18.722-6.827-28.288l-0.264-1.007c-0.945-4.48-2.493-8.812-4.599-12.877    c-4.518-8.228-13.202-13.297-22.588-13.184H172.022c-9.516-0.085-17.305,7.551-17.408,17.067v76.8    c0.103,9.516,7.892,17.152,17.408,17.067h17.161c2.038,14.697,14.602,25.64,29.44,25.64c14.838,0,27.402-10.943,29.44-25.64    H274.516z M303.947,204.804c-7.069,0-12.8-5.731-12.8-12.8c0-7.069,5.731-12.8,12.8-12.8c7.069,0,12.8,5.731,12.8,12.8    C316.747,199.074,311.016,204.804,303.947,204.804z M257.014,128.004v-25.6h25.6v25.6H257.014z M214.347,128.004v-25.6h25.6v25.6    H214.347z M197.28,102.404v25.6h-25.37l0.111-25.6H197.28z M171.68,179.204l0.154-34.133h144.913c4.713,0,8.533-3.821,8.533-8.533    c0-4.713-3.82-8.533-8.533-8.533H299.68v-25.6h27.392c3.231-0.11,6.24,1.641,7.74,4.506c1.328,2.762,2.311,5.676,2.927,8.678    l0.222,0.853c2.219,9.446,4.497,18.833,6.827,28.254l1.34,5.521c0.503,2.082,1.186,4.318,1.894,6.647    c2.406,5.385,3.158,11.364,2.159,17.178c-1.594,3.124-4.796,5.098-8.303,5.12h-11.059c-4.888-10.426-15.365-17.085-26.88-17.085    s-21.992,6.659-26.88,17.085h-31.573c-4.888-10.426-15.365-17.085-26.88-17.085s-21.992,6.659-26.88,17.085L171.68,179.204z     M218.614,204.804c-7.069,0-12.8-5.731-12.8-12.8c0-7.069,5.731-12.8,12.8-12.8c7.069,0,12.8,5.731,12.8,12.8    C231.414,199.074,225.683,204.804,218.614,204.804z" data-original="#000000" class=""/>
	</g>
</g></g> </svg>
