<svg height="511pt" viewBox="1 -105 511.99998 511" width="511pt" xmlns="http://www.w3.org/2000/svg"><path d="m420.828125 41.707031v61.8125l64.976563 10.09375c10.035156 1.558594 17.4375 10.203125 17.4375 20.359375v59.683594h1.03125c4.265624 0 7.726562 3.460938 7.726562 7.726562v38.632813c0 4.265625-3.460938 7.726563-7.726562 7.726563h-486.246094c-4.265625 0-7.722656-3.460938-7.722656-7.726563v-198.308594c0-22.757812 18.449218-41.207031 41.207031-41.207031h328.109375c22.757812 0 41.207031 18.449219 41.207031 41.207031zm0 0" fill="#ffcf5d"/><path d="m512 240.015625v-38.628906c0-4.269531-3.460938-7.726563-7.726562-7.726563h-1.03125v-59.6875c0-10.15625-7.402344-18.800781-17.4375-20.359375l-64.976563-10.09375v-61.8125c0-11.132812-4.421875-21.230469-11.597656-28.644531-11.320313 4.589844-19.308594 15.679688-19.308594 28.644531v61.8125c0 15.234375 11.105469 28.199219 26.164063 30.539063l56.253906 8.738281v74.042969h-462.035156v23.175781c0 4.269531 3.457031 7.726563 7.722656 7.726563h486.246094c4.265624 0 7.726562-3.457032 7.726562-7.726563zm0 0" fill="#ff983b"/><path d="m7.726562 193.660156h15.453126c4.265624 0 7.726562 3.457032 7.726562 7.726563v46.355469h-23.179688c-4.265624 0-7.726562-3.457032-7.726562-7.726563v-38.628906c0-4.269531 3.460938-7.726563 7.726562-7.726563zm0 0" fill="#596775"/><path d="m504.273438 193.660156h-15.453126c-4.265624 0-7.726562 3.457032-7.726562 7.726563v46.355469h23.179688c4.265624 0 7.726562-3.457032 7.726562-7.726563v-38.628906c0-4.269531-3.460938-7.726563-7.726562-7.726563zm0 0" fill="#35404a"/><path d="m427.011719 301.828125c-29.824219 0-54.085938-24.261719-54.085938-54.085937 0-29.820313 24.261719-54.082032 54.085938-54.082032 29.820312 0 54.082031 24.261719 54.082031 54.082032 0 29.824218-24.261719 54.085937-54.082031 54.085937zm0 0" fill="#596775"/><path d="m438.070312 194.800781c-6.339843 11.710938-4.566406 26.652344 5.332032 36.550781l-32.78125 32.78125c-9.898438-9.898437-24.839844-11.675781-36.554688-5.332031 5.121094 24.535157 26.910156 43.027344 52.945313 43.027344 29.824219 0 54.085937-24.261719 54.085937-54.085937-.003906-26.035157-18.492187-47.824219-43.027344-52.941407zm0 0" fill="#35404a"/><path d="m450.191406 247.742188c0 12.800781-10.378906 23.179687-23.179687 23.179687s-23.179688-10.378906-23.179688-23.179687c0-12.800782 10.378907-23.179688 23.179688-23.179688s23.179687 10.378906 23.179687 23.179688zm0 0" fill="#e9e3d5"/><path d="m114.351562 301.828125c-29.824218 0-54.085937-24.261719-54.085937-54.085937 0-29.820313 24.261719-54.082032 54.085937-54.082032 29.824219 0 54.085938 24.261719 54.085938 54.082032 0 29.824218-24.265625 54.085937-54.085938 54.085937zm0 0" fill="#596775"/><path d="m125.40625 194.800781c-6.339844 11.710938-4.566406 26.652344 5.335938 36.550781l-32.78125 32.78125c-9.898438-9.898437-24.839844-11.675781-36.554688-5.332031 5.117188 24.535157 26.910156 43.027344 52.945312 43.027344 29.824219 0 54.085938-24.261719 54.085938-54.085937 0-26.035157-18.492188-47.824219-43.03125-52.941407zm0 0" fill="#35404a"/><path d="m137.53125 247.742188c0 12.800781-10.378906 23.179687-23.179688 23.179687-12.800781 0-23.179687-10.378906-23.179687-23.179687 0-12.800782 10.378906-23.179688 23.179687-23.179688 12.800782 0 23.179688 10.378906 23.179688 23.179688zm0 0" fill="#e9e3d5"/><path d="m259.605469 46.859375v200.882813h82.414062l-41.207031-200.882813zm0 0" fill="#87f8f4"/><path d="m300.8125 46.859375v169.980469h-41.207031v30.902344h82.414062c0-19.589844 0-194.871094 0-200.882813zm0 0" fill="#00d3d8"/><path d="m342.019531 39.132812h-82.414062c-4.265625 0-7.726563 3.457032-7.726563 7.726563v200.882813h15.453125v-110.742188h25.753907v110.742188h15.453124v-110.742188h25.753907v110.742188h15.453125v-200.882813c0-4.269531-3.457032-7.726563-7.726563-7.726563zm-74.6875 82.414063v-66.960937h25.753907v66.960937zm41.207031 0v-66.960937h25.753907v66.960937zm0 0" fill="#ff983b"/><path d="m372.925781 46.859375h47.902344v56.660156h-47.902344zm0 0" fill="#00d3d8"/><path d="m10.304688 46.859375v82.414063h218.394531v-82.414063c-6.816407 0-204.410157 0-218.394531 0zm0 0" fill="#87f8f4"/><path d="m197.792969 46.859375v51.507813h-51.507813v-51.507813h-30.90625v51.507813h-51.507812v-51.507813h-30.90625v51.507813h-22.660156v30.90625h218.394531v-82.414063c-1.582031 0-13.445313 0-30.90625 0zm0 0" fill="#00d3d8"/><g fill="#ffcf5d"><path d="m138.558594 39.132812h15.453125v97.867188h-15.453125zm0 0"/><path d="m56.144531 39.132812h15.453125v97.867188h-15.453125zm0 0"/></g></svg>