<svg height="512" viewBox="0 0 60 60" width="512" xmlns="http://www.w3.org/2000/svg"><g id="048---Parents-Walking-With-Child" fill="none"><g id="Layer_3" transform="translate(1 1)"><circle id="Oval" cx="29" cy="17" fill="#ffe0b2" r="6"/><path id="Shape" d="m29 11c-.5064496.0029108-1.0104803.0701149-1.5.2 2.6479943.6813094 4.498931 3.0687622 4.498931 5.803s-1.8509367 5.1216906-4.498931 5.803c2.2531797.5872914 4.6426897-.1820582 6.1299399-1.9736543 1.4872502-1.7915962 1.8036517-4.2818866.8116819-6.3884777s-3.1131667-3.4490442-5.4416218-3.443868z" fill="#dfc49c"/><path id="Shape" d="m14.82 18.03c-.2266716.6143175-.6481099 1.1376034-1.2 1.49-.4807967.316368-1.0444631.4833803-1.62.48-.2629462-.0037125-.5246213-.0372606-.78-.1v-.01c-.7184539-.1907523-1.33930061-.643899-1.74-1.27l-5.48-8.45v19.83h-4v-29c0-.55228475.44771525-1 1-1h2.47c.33262608-.00050114.64372956.16442118.83.44l10.22 14.94c.5109813.7870724.6220995 1.7686166.3 2.65z" fill="#9d27b0"/><path id="Shape" d="m14.52 15.38-10.22-14.94c-.18627044-.27557882-.49737392-.44050114-.83-.44h-2.47c-.08098842.00627411-.16091067.02239289-.238.048.21883725.06539319.40869508.20372826.538.392l10.22 14.94c.433906.6671426.5829333 1.4801274.4138743 2.2577988-.169059.7776713-.6421569 1.4554115-1.3138743 1.8822012-.037.024-.076.041-.114.063.2231471.1339064.4633033.2371668.714.307v.01c.2553787.0627394.5170538.0962875.78.1.5755369.0033803 1.1392033-.163632 1.62-.48.6717174-.4267897 1.1448153-1.1045299 1.3138743-1.8822012.169059-.7776714.0200317-1.5906562-.4138743-2.2577988z" fill="#6a1b9a"/><path id="Shape" d="m28 45c-.5522847 0-1 .4477153-1 1v10c-.0002619.5897355-.2607843 1.1492934-.7119297 1.5291038-.4511453.3798104-1.0469189.5411513-1.6280703.4408962-.9840452-.2066459-1.6814634-1.0847206-1.66-2.09v-10.88z" fill="#e57e25"/><path id="Shape" d="m35 45v10.88c.0214634 1.0052794-.6759548 1.8833541-1.66 2.09-.5811514.1002551-1.176925-.0610858-1.6280703-.4408962-.4511454-.3798104-.7116678-.9393683-.7119297-1.5291038v-10c0-.5522847-.4477153-1-1-1z" fill="#e57e25"/><path id="Shape" d="m46.78 19.9c-.0811107.1641535-.1855237.3157206-.31.45l-9.96 10.87c-.3668558.3903433-.5551801.9154783-.52 1.45.01.11.01.22.01.33v11c0 .5522847-.4477153 1-1 1h-12c-.5522847 0-1-.4477153-1-1 0 0 0-11.22.01-11.33.0351801-.5345217-.1531442-1.0596567-.52-1.45l-9.96-10.87c-.1244763-.1342794-.2288893-.2858465-.31-.45.2553787.0627394.5170538.0962875.78.1.5755369.0033803 1.1392033-.163632 1.62-.48.5518901-.3523966.9733284-.8756825 1.2-1.49l8.32 9.08c.5902346.6438555 1.5318522.8264969 2.32.45.7953037-.370827 1.6624941-.5620186 2.54-.56h2c.8775059-.0020186 1.7446963.189173 2.54.56.7881478.3764969 1.7297654.1938555 2.32-.45l8.32-9.08c.2266716.6143175.6481099 1.1376034 1.2 1.49.4807967.316368 1.0444631.4833803 1.62.48.2629462-.0037125.5246213-.0372606.78-.1z" fill="#ff9801"/><path id="Shape" d="m44.38 19.52c.4807967.316368 1.0444631.4833803 1.62.48.2629462-.0037125.5246213-.0372606.78-.1-.0811107.1641535-.1855237.3157206-.31.45l-9.96 10.87c-.3668558.3903433-.5551801.9154783-.52 1.45.01.11.01.22.01.33v11c0 .5522847-.4477153 1-1 1h-3c.5522847 0 1-.4477153 1-1v-11c0-.11 0-.22-.01-.33-.0351801-.5345217.1531442-1.0596567.52-1.45l10.78-11.76z" fill="#f57c00"/><path id="Shape" d="m4.00000215 30-.00000215 24.04c.0020405 1.9808139-1.45009988 3.662912-3.41 3.95-.14562263.0266483-.29556769-.0126048-.40945386-.1071882s-.18000351-.234772-.18054614-.3828118v-27.5z" fill="#6a1b9a"/><path id="Shape" d="m58 30v27.5c-.0005426.1480398-.06666.2882284-.1805461.3828118-.1138862.0945834-.2638313.1338365-.4094539.1071882-1.9599001-.287088-3.4120405-1.9691861-3.41-3.95l-.0000021-24.04z" fill="#3f51b5"/><path id="Shape" d="m58 1v29h-7.31c-.6324732-.0012814-1.2270685-.3016537-1.6033934-.8099878-.3763249-.5083342-.4900255-1.1647176-.3066066-1.7700122l5.22-17.25-5.48 8.45c-.4006994.626101-1.0215461 1.0792477-1.74 1.27v.01c-.2553787.0627394-.5170538.0962875-.78.1-.5755369.0033803-1.1392033-.163632-1.62-.48-.6717174-.4267897-1.1448153-1.1045299-1.3138743-1.8822012-.169059-.7776714-.0200317-1.5906562.4138743-2.2577988l10.22-14.94c.1862704-.27557882.4973739-.44050114.83-.44h2.47c.5522847 0 1 .44771525 1 1z" fill="#02a9f4"/><path id="Shape" d="m57 0h-2.47c-.0991491.00172086-.1975174.01789099-.292.048.442687.10436705.7571207.49720284.762.952v29h3v-29c0-.55228475-.4477153-1-1-1z" fill="#0377bc"/></g><g id="Layer_11" fill="#000"><path id="Shape" d="m30 25c3.8659932 0 7-3.1340068 7-7s-3.1340068-7-7-7-7 3.1340068-7 7c.0049584 3.8639376 3.1360624 6.9950416 7 7zm0-12c2.7614237 0 5 2.2385763 5 5s-2.2385763 5-5 5-5-2.2385763-5-5c.0033061-2.7600532 2.2399468-4.9966939 5-5z"/><path id="Shape" d="m58 0h-2.47c-.6627316-.00024039-1.2825449.32782999-1.655.876l-10.234 14.961c-.5583662.8612335-.759571 1.9059918-.561 2.913l-7.958 8.684c-.2963234.3225165-.7693482.4119967-1.163.22-1.677-.783-2.859-.654-4.959-.654-1.022848-.0021745-2.033564.2214806-2.96.655-.3937429.1902225-.8655783.1004844-1.162-.221l-7.958-8.684c.1985893-1.015883-.0077581-2.0691521-.575-2.935l-10.217-14.934c-.37191781-.55095046-.99326753-.88111277-1.658-.881h-2.47c-1.1045695 0-2 .8954305-2 2v56.5c.00081347.4385625.19276051.8549843.52568831 1.1404607.33292779.2854765.77375918.4116449 1.20731169.3455393 2.44720488-.3734063 4.25788331-2.4734878 4.267-4.949v-40.487l3.638 5.609c.464298.7267824 1.1521606 1.2830386 1.96 1.585.347.477-1.325-1.386 10.159 11.151.34.371.243-.5.243 12.1.0003753.7141557.3815228 1.3739222 1 1.731v10.15c-.0190921 1.4956379 1.0324999 2.79162 2.5 3.081.8705325.1471469 1.7616843-.096636 2.4360947-.6664164.6744103-.5697804 1.0635993-1.4077025 1.0639053-2.2905836v-10h2v10c.000306.8828811.389495 1.7208032 1.0639053 2.2905836.6744104.5697804 1.5655622.8135633 2.4360947.6664164 1.4675001-.28938 2.5190921-1.5853621 2.5-3.081v-10.145c.6184772-.3570778.9996247-1.0168443 1-1.731 0-12.434-.124-11.7.244-12.106 11.473-12.522 9.808-10.671 10.156-11.149.8074017-.3002093 1.4950751-.8551923 1.959-1.581l1.641-2.527-3.177 10.494c-.275047.9088207-.1036083 1.8941996.4622232 2.6567222.5658316.7625225 1.4592475 1.2121567 2.4087768 1.2122778h2.306v23.037c.0104373 2.4737234 1.819708 4.5718834 4.265 4.946.4332254.0659713.8737209-.0597727 1.2068348-.3445035.3331139-.2847307.5258945-.7002828.5281652-1.1384965v-56.5c0-.53043298-.2107137-1.0391408-.5857864-1.41421356-.3750728-.37507276-.8837806-.58578644-1.4142136-.58578644zm-54 55.037c-.00598847 1.2695713-.80511479 2.3999354-2 2.829v-25.866h2zm1.839-44.411c-.24104073-.3716624-.69787547-.5404503-1.12266222-.4147929-.42478674.1256575-.71627957.5158103-.71633778.9587929v18.83h-2v-28h2.475l10.206 14.924c.5932582.9314585.3192853 2.16747-.612 2.761-.9329217.559619-2.1405785.2921779-2.75-.609zm30.932 20.915c-.5445589.5953673-.8254835 1.3854903-.779 2.191.008.185.008 1.945.008 11.268-.5522847 0-1 .4477153-1 1v10.876c.0200019.5177824-.3240648.9793151-.826 1.108-.291017.0514214-.5898752-.0285118-.8163653-.2183467-.22649-.189835-.3574144-.4701284-.3576347-.7656533v-10c0-1.1045695-.8954305-2-2-2h-2c-1.1045695 0-2 .8954305-2 2v10c-.0221505.3572656-.2332173.6755755-.5536936.8350254-.3204763.15945-.7016741.1358157-1-.062-.2983258-.1978156-.4684569-.5397598-.4463064-.8970254v-10.876c0-.5522847-.4477153-1-1-1 0 0 0-11.179.008-11.27.0461612-.8043818-.2343709-1.5933334-.778-2.188l-8.948-9.761c.6509806-.2124113 1.2315519-.5986521 1.679-1.117l7.439 8.121c.885918.968607 2.3003742 1.2453308 3.486.682 1.258-.588 2.174-.467 4.114-.467.7290972-.0022141 1.4496525.1569227 2.11.466 1.1857176.5637336 2.6005089.2874293 3.487-.681l7.442-8.121c.448046.5174455 1.0284447.9032258 1.679 1.116zm13.966-2.83 5.22-17.251c.1518856-.4797427-.076377-.9976206-.5329608-1.209171-.4565837-.2115505-.999246-.0508679-1.2670392.375171l-5.478 8.454c-.6110817.8971349-1.8155687 1.1624114-2.747.605-.9240188-.5881112-1.203092-1.8100595-.626-2.741l10.224-14.944h2.47v28h-6.306c-.3163517-.0001041-.6139974-.1498933-.8025766-.4038939-.1885792-.2540005-.2458491-.5822534-.1544234-.8851061zm7.263 29.155c-1.1950719-.4288189-1.9943054-1.5593346-2-2.829v-23.037h2z"/></g></g></svg>