<?xml version="1.0" encoding="iso-8859-1"?>
<!-- Generator: Adobe Illustrator 19.0.0, SVG Export Plug-In . SVG Version: 6.00 Build 0)  -->
<svg version="1.1" id="Capa_1" xmlns="http://www.w3.org/2000/svg" xmlns:xlink="http://www.w3.org/1999/xlink" x="0px" y="0px"
	 viewBox="0 0 512 512" style="enable-background:new 0 0 512 512;" xml:space="preserve">
<path style="fill:#F576A2;" d="M321.922,466.34H0V325.425c0-56.42,45.737-102.157,102.157-102.157h117.607
	c56.42,0,102.157,45.737,102.157,102.157L321.922,466.34L321.922,466.34z"/>
<path style="fill:#FFA1DC;" d="M160.961,223.267h-58.804C45.737,223.267,0,269.005,0,325.425V466.34h160.961V223.267z"/>
<circle style="fill:#F576A2;" cx="160.96" cy="130.85" r="85.19"/>
<path style="fill:#FFA1DC;" d="M160.961,216.042c-47.05,0-85.191-38.141-85.191-85.191s38.141-85.191,85.191-85.191V216.042z"/>
<path style="fill:#FFB066;" d="M512,466.34H264.746V339.647c0-33.137,26.863-60,60-60H452c33.137,0,60,26.863,60,60V466.34z"/>
<path style="fill:#FFEB6B;" d="M388.373,279.647h-63.627c-33.137,0-60,26.863-60,60V466.34h123.627V279.647z"/>
<circle style="fill:#FFB066;" cx="388.37" cy="203.12" r="65.43"/>
<path style="fill:#FFEB6B;" d="M388.373,268.552c-36.137,0-65.431-29.295-65.431-65.431s29.295-65.431,65.431-65.431V268.552z"/>
<g>
</g>
<g>
</g>
<g>
</g>
<g>
</g>
<g>
</g>
<g>
</g>
<g>
</g>
<g>
</g>
<g>
</g>
<g>
</g>
<g>
</g>
<g>
</g>
<g>
</g>
<g>
</g>
<g>
</g>
</svg>
