<svg height="512pt" viewBox="0 0 512 512" width="512pt" xmlns="http://www.w3.org/2000/svg"><path d="m213 99.667969h-88.5c-21.261719 0-38.5 17.234375-38.5 38.5v21.371093h80.5c25.679688 0 46.5-20.820312 46.5-46.5zm0 0" fill="#ffc36e"/><path d="m190 159.539062h-104v47.5c0 28.71875 23.28125 52 52 52s52-23.28125 52-52zm0 0" fill="#fccd9d"/><path d="m472.78125 294v-84.710938c0-49.105468-39.804688-88.910156-88.910156-88.910156-49.101563 0-88.90625 39.804688-88.90625 88.910156v84.710938zm0 0" fill="#ffc36e"/><path d="m266 501.25v-154.605469c0-48.382812-39.222656-87.605469-87.605469-87.605469h-80.789062c-48.382813 0-87.605469 39.222657-87.605469 87.605469v155.355469zm0 0" fill="#95e2ff"/><path d="m181.398438 261.269531c0 23.964844-19.429688 43.398438-43.398438 43.398438s-43.398438-19.429688-43.398438-43.398438zm0 0" fill="#fff"/><path d="m502 502v-134.460938c0-53.828124-43.636719-97.464843-97.460938-97.464843h-41.332031c-53.828125 0-97.460937 43.636719-97.460937 97.464843v133.710938zm0 0" fill="#ff5d5d"/><path d="m420.082031 275.332031c0 20.066407-16.269531 36.332031-36.335937 36.332031s-36.335938-16.265624-36.335938-36.332031zm0 0" fill="#fff"/><path d="m403.414062 168.703125c-15.414062 14.558594-35.8125 22.667969-57.011718 22.667969h-10.53125v30.707031c0 26.507813 21.492187 48 48 48 26.511718 0 48-21.492187 48-48v-24.039063c-14.390625-.300781-28.195313-5.789062-38.859375-15.457031l-.601563-.542969" fill="#fccd9d"/><path d="m338 502c0-39.765625-32.234375-72-72-72s-72 32.234375-72 72zm0 0" fill="#ffc36e"/><path d="m302 394c0 19.882812-16.117188 36-36 36s-36-16.117188-36-36 16.117188-36 36-36 36 16.117188 36 36zm0 0" fill="#fccd9d"/><path d="m305.546875 10c-9.09375 0-17.296875 4.179688-23.089844 10.878906-5.796875-6.699218-13.996093-10.878906-23.09375-10.878906-17.554687 0-31.789062 15.570312-31.789062 34.777344 0 26.90625 54.878906 64.222656 54.878906 64.222656s54.882813-37.316406 54.882813-64.222656c0-19.207032-14.234376-34.777344-31.789063-34.777344zm0 0" fill="#ff5d5d"/><path d="m482.78125 293.960938v-84.671876c0-54.539062-44.371094-98.910156-98.910156-98.910156-54.535156 0-98.90625 44.371094-98.90625 98.910156v84.664063c-5.613282 5.949219-10.5625 12.539063-14.714844 19.667969-13.023438-36.113282-46.78125-62.398438-86.832031-64.441406 10.28125-11.070313 16.582031-25.878907 16.582031-42.140626v-47.5c0-.339843-.019531-.671874-.050781-1.003906 13.96875-10.296875 23.050781-26.851562 23.050781-45.496094v-13.371093c0-5.523438-4.476562-10-10-10h-88.5c-26.742188 0-48.5 21.757812-48.5 48.5v68.871093c0 16.253907 6.296875 31.058594 16.566406 42.128907-51.488281 2.628906-92.566406 45.347656-92.566406 97.476562v155.355469c0 5.523438 4.476562 10 10 10h492c5.523438 0 10-4.476562 10-10v-134.460938c0-28.445312-11.113281-54.335937-29.21875-73.578124zm-98.910156-163.582032c43.511718 0 78.910156 35.398438 78.910156 78.910156v67.980469c-11.117188-7.199219-23.640625-12.398437-37.0625-15.089843 9.992188-10.425782 16.152344-24.554688 16.152344-40.101563v-24.039063c0-5.441406-4.351563-9.886718-9.789063-10-9.386719-.191406-18.472656-3.039062-26.234375-8.132812 1.511719-1.257812 2.992188-2.566406 4.429688-3.929688 4.015625-3.792968 4.199218-10.121093.40625-14.136718-3.792969-4.015625-10.121094-4.195313-14.136719-.40625-13.613281 12.859375-31.421875 19.9375-50.144531 19.9375h-10.53125c-5.519532 0-10 4.480468-10 10v30.707031c0 15.554687 6.167968 29.6875 16.167968 40.113281-13.378906 2.695313-25.917968 7.898438-37.074218 15.117188v-68.019532c0-43.511718 35.398437-78.910156 78.90625-78.910156zm38 91.699219c0 20.953125-17.046875 38-38 38-20.949219 0-38-17.046875-38-38v-20.707031h.53125c14.652344 0 28.863281-3.402344 41.667968-9.824219 9.679688 8.191406 21.375 13.5625 33.800782 15.59375zm-58.664063 58h41.332031c1.703126 0 3.398438.054687 5.078126.148437-2.300782 12.1875-13.023438 21.4375-25.871094 21.4375-12.835938 0-23.550782-9.234374-25.867188-21.40625 1.765625-.105468 3.539063-.179687 5.328125-.179687zm-97.207031 139.921875c-14.335938 0-26-11.664062-26-26s11.664062-26 26-26 26 11.664062 26 26-11.664062 26-26 26zm-95.523438-150.960938c-3.511718 14.679688-16.734374 25.628907-32.476562 25.628907s-28.964844-10.949219-32.476562-25.628907zm9.523438-99.5v37.5c0 23.15625-18.839844 42-42 42s-42-18.84375-42-42v-37.5zm-84-31.371093c0-15.714844 12.785156-28.5 28.5-28.5h78.5v3.371093c0 20.125-16.375 36.5-36.5 36.5h-70.5zm-76 208.476562c0-38.613281 28.351562-70.722656 65.332031-76.625 4.1875 25.292969 26.203125 44.648438 52.667969 44.648438s48.480469-19.355469 52.671875-44.648438c36.976563 5.902344 65.328125 38.011719 65.328125 76.625v2.464844c-20.570312 4.578125-36 22.960937-36 44.890625 0 12.761719 5.226562 24.324219 13.648438 32.664062-26.242188 11.3125-45.425782 35.945313-49.015626 65.335938h-110.632812v-69.464844c0-5.523437-4.476562-10-10-10s-10 4.476563-10 10v69.464844h-34zm184.804688 145.355469c4.796874-29.449219 30.414062-52 61.195312-52s56.398438 22.550781 61.195312 52zm287.195312 0h-34v-68c0-5.523438-4.476562-10-10-10s-10 4.476562-10 10v68h-90.632812c-3.589844-29.390625-22.773438-54.023438-49.015626-65.335938 8.421876-8.339843 13.648438-19.902343 13.648438-32.664062 0-21.347656-14.617188-39.34375-34.371094-44.507812 6.640625-31.671876 30.355469-56.679688 60.5625-65.734376 3.976563 21.539063 22.882813 37.90625 45.554688 37.90625 22.707031 0 41.636718-16.421874 45.570312-38.007812 36.195313 10.710938 62.683594 44.257812 62.683594 83.882812zm0 0"/><path d="m64 392.527344c5.523438 0 10-4.484375 10-10.007813 0-5.523437-4.476562-10-10-10s-10 4.476563-10 10v.015625c0 5.523438 4.476562 9.992188 10 9.992188zm0 0"/><path d="m248.226562 94.320312c14.105469 13.046876 28.019532 22.550782 28.605469 22.949219 1.695313 1.152344 3.660157 1.730469 5.621094 1.730469 1.964844 0 3.929687-.578125 5.625-1.730469.585937-.398437 14.5-9.902343 28.605469-22.949219 20.625-19.082031 30.652344-35.285156 30.652344-49.542968 0-24.6875-18.746094-44.777344-41.789063-44.777344-8.257813 0-16.300781 2.648438-23.09375 7.460938-6.789063-4.8125-14.832031-7.460938-23.089844-7.460938-23.042969 0-41.789062 20.089844-41.789062 44.777344 0 14.257812 10.027343 30.460937 30.652343 49.542968zm11.136719-74.320312c5.875 0 11.390625 2.636719 15.527344 7.421875 1.898437 2.195313 4.660156 3.457031 7.5625 3.457031 2.90625 0 5.664063-1.261718 7.566406-3.457031 4.136719-4.785156 9.652344-7.421875 15.527344-7.421875 12.011719 0 21.789063 11.113281 21.789063 24.777344 0 13.582031-24.640626 37.117187-44.886719 51.976562-20.242188-14.839844-44.875-38.363281-44.875-51.976562 0-13.664063 9.777343-24.777344 21.789062-24.777344zm0 0"/><path d="m448 374.539062c-2.628906 0-5.210938 1.066407-7.070312 2.929688-1.859376 1.859375-2.929688 4.4375-2.929688 7.070312 0 2.628907 1.070312 5.207032 2.929688 7.066407 1.859374 1.863281 4.441406 2.933593 7.070312 2.933593s5.210938-1.070312 7.070312-2.933593c1.859376-1.859375 2.929688-4.4375 2.929688-7.066407 0-2.632812-1.070312-5.210937-2.929688-7.070312-1.859374-1.863281-4.441406-2.929688-7.070312-2.929688zm0 0"/></svg>