<svg height="512pt" viewBox="0 0 512.00051 512" width="512pt" xmlns="http://www.w3.org/2000/svg"><path d="m497.230469 272.898438c3.457031-1.390626 6.570312-3.597657 9.058593-6.492188 4.484376-5.210938 6.472657-12.097656 5.445313-18.898438l-15.960937-105.984374c-1.566407-10.414063-8.597657-19.355469-18.347657-23.339844l-17.6875-7.226563c4.316407-4.871093 6.949219-11.273437 6.949219-18.28125v-26.203125c0-15.214844-12.382812-27.597656-27.601562-27.597656h-9.058594c-15.214844 0-27.59375 12.382812-27.59375 27.597656v26.203125c0 7.273438 2.828125 13.890625 7.441406 18.824219l-21.203125 7.859375c-8.179687 3.03125-14.625 9.453125-17.691406 17.617187l-36.3125 96.753907-29.855469 43.886719v-13.859376c0-18.390624-14.960938-33.351562-33.351562-33.351562-18.386719 0-33.347657 14.960938-33.347657 33.351562v10.871094l-32.671875-47.488281-29.035156-126.757813c-.113281-.5-.277344-.980468-.488281-1.445312-7.636719-16.6875-24.429688-27.472656-42.78125-27.472656h-11.789063c2.738282-4.589844 4.316406-9.945313 4.316406-15.667969v-25.128906c0-16.910157-13.757812-30.667969-30.667968-30.667969h-5.363282c-16.910156 0-30.664062 13.757812-30.664062 30.667969v25.128906c0 5.71875 1.578125 11.078125 4.316406 15.664063h-16.242187c-13.148438 0-25.785157 5.558593-34.671875 15.253906-8.890625 9.691406-13.332032 22.761718-12.195313 35.863281.003907.0625.011719.121094.015625.183594l13.425782 120.417969c1.726562 15.488281 13.246093 27.675781 27.980468 30.699218l10.757813 197.648438-17.46875 18.824218c-3.359375 3.621094-4.253907 8.882813-2.28125 13.410157 1.976562 4.527343 6.441406 7.453125 11.382812 7.453125h89.375c4.9375 0 9.40625-2.925782 11.378907-7.453125 1.976562-4.523438 1.082031-9.789063-2.277344-13.410157l-16.6875-17.980468 1.808594-34.71875c.214843-4.132813-2.964844-7.664063-7.101563-7.878906-4.175781-.222657-7.664063 2.964843-7.878906 7.101562l-1.558594 29.921875h-14.011719l-.859375-173.476563c-.023437-4.128906-3.375-7.464843-7.5-7.464843-.011719 0-.023437 0-.039062 0-4.128907.023437-7.464844 3.375-7.460938 7.5v.039062l.859375 173.402344h-14.914062l-10.890625-200.085937c0-.003907 0-.007813 0-.011719l-1.183594-21.683594h67.535156l-8.128906 156.269531c-.214844 4.136719 2.964844 7.664063 7.101563 7.878906 4.160156.203126 7.664062-2.964843 7.878906-7.097656l8.542968-164.160156 4.007813-77.082031 28.734375 72.792969c.0625 1.027343.324219 2.050781.8125 2.992187l57.503906 111.332031c1.496094 2.894532 2.289063 6.148438 2.289063 9.410156v23.878907.019531 42.3125c0 5.199219 2.84375 9.734375 7.046875 12.167969l5.78125 62.171875c.21875 7.664062 6.519531 13.832031 14.234375 13.832031h24.609375c7.621094 0 13.867187-6.019531 14.222656-13.558594l10.027344-64.460937c2.675781-2.5625 4.355468-6.160156 4.355468-10.152344v-42.296875c0-.011719.003907-.023437.003907-.039063v-24.007812c0-3.199219.761719-6.398438 2.25-9.332031l54.25-110.796875c2.226562-2.164063 4.140625-4.703125 5.621093-7.570313l6.792969-13.144531-11.695312 55.71875c-.855469 4.054688 1.742187 8.03125 5.796875 8.882812 4.050781.851563 8.03125-1.746093 8.882812-5.800781l21.753906-103.640625c.867188-4.136718-1.390624-8.164062-5.371093-9.582031-3.980469-1.414063-8.277344.28125-10.21875 4.035156l-2.628907 5.089844-10.226562-6.945313 8.214844-21.886718c1.535156-4.089844 4.761718-7.304688 8.855468-8.824219l34.714844-12.867187c.308594-.113282.621094-.199219.929688-.296876.167968.003907.332031.011719.5.011719h9.058594c1.035156 0 2.054687-.0625 3.0625-.171875.691406.203125 1.375.4375 2.050781.710938l27.554687 11.257812c4.882813 1.996094 8.402344 6.472656 9.1875 11.6875l4.785156 31.757813h-8.179687l-2.652344-13.125c-.820312-4.0625-4.765625-6.6875-8.835937-5.867188-4.0625.820313-6.6875 4.777344-5.867188 8.835938l33.457032 165.523437c-18.140626 7.523438-37.234376 11.597656-56.777344 12.109375-22.050782.582031-44.535156-3.605469-65.0625-12.09375l5.070312-24.15625c.851563-4.054687-1.746094-8.03125-5.800781-8.882812-4.050781-.851563-8.027344 1.746093-8.882813 5.800781l-5.226562 24.914062c-1.382812 6.585938 2.113281 13.253907 8.3125 15.855469 9.183594 3.851563 18.734375 6.910157 28.472656 9.144531l8.003906 121.699219-13.007812 16.300781c-3 3.761719-3.570312 8.792969-1.480469 13.128907 2.085938 4.339843 6.375 7.03125 11.1875 7.03125h68.984375c4.8125 0 9.101563-2.691407 11.1875-7.03125 2.089844-4.335938 1.519532-9.367188-1.480468-13.128907l-13.625-17.070312 8.332031-120.929688c9.625-2.230468 19.082031-5.277343 28.304687-9.15625 6.15625-2.585937 9.667969-9.214843 8.34375-15.753906zm-244.113281-9.140626c0-10.121093 8.230468-18.351562 18.347656-18.351562 10.117187 0 18.347656 8.230469 18.347656 18.351562v19.761719c0 9.988281-8.023438 18.121094-17.960938 18.332031-1.40625-.03125-2.835937-.167968-4.242187-.398437-8.273437-1.777344-14.492187-9.136719-14.492187-17.929687zm-69.890626-39.304687-25.070312-63.519531 15.394531-5.84375 15.605469 68.121094zm-109.257812-168.65625v-25.128906c0-8.640625 7.027344-15.667969 15.667969-15.667969h5.363281c8.636719 0 15.664062 7.027344 15.664062 15.667969v25.128906c0 8.636719-7.027343 15.664063-15.664062 15.664063h-5.363281c-8.640625.003906-15.667969-7.027344-15.667969-15.664063zm40.089844 426 13.378906 14.417969h-31.261719v-14.417969zm-32.882813 0v14.417969h-31.265625l13.378906-14.417969zm-26.941406-251.78125-.5625-10.289063c-.222656-4.136718-3.753906-7.3125-7.894531-7.078124-4.136719.222656-7.308594 3.757812-7.082032 7.894531l.945313 17.378906 1.089844 20.050781c-6.554688-2.804687-11.371094-8.960937-12.207031-16.457031l-8.476563-76.035156h15.652344l1.074219 19.78125c.21875 4 3.527343 7.09375 7.484374 7.09375.136719 0 .273438-.003907.414063-.011719 4.136719-.226562 7.304687-3.761719 7.082031-7.894531l-3.207031-58.894531c-.226563-4.136719-3.765625-7.304688-7.894531-7.082032-4.136719.226563-7.308594 3.761719-7.082032 7.894532l1.3125 24.113281h-16.507812l-3.261719-29.289063c-.761719-9.023437 2.1875-17.664062 8.3125-24.34375 6.144531-6.699218 14.53125-10.386718 23.617188-10.386718h86.097656c12.257813 0 23.492187 7.0625 28.828125 18.054687l8.203125 35.808594-17.523437 6.65625-7.089844-17.96875c-1.542969-3.910157-5.511719-6.164063-9.667969-5.488281-4.148437.679687-7.199219 4.085937-7.414063 8.28125l-5.109374 98.210937zm217.230469 169.910156c-4.144532 0-7.5 3.359375-7.5 7.5v15.195313h-17.640625v-33.882813h50.28125v33.882813h-17.640625v-15.195313c0-4.140625-3.359375-7.5-7.5-7.5zm-17.851563 37.695313h10.351563v59.113281h-4.855469zm28.714844 58.722656c-.023437.128906-.039063.261719-.050781.390625h-3.3125v-59.113281h12.492187zm18.097656-155.140625c-2.5 4.9375-3.820312 10.476563-3.820312 16.019531v16.507813h-50.28125v-16.378907c0-5.644531-1.371094-11.277343-3.960938-16.292968l-52.628906-101.894532 5.046875-1.054687 40.835938 59.347656c6.746093 9.8125 17.339843 16.636719 29.113281 18.730469.015625.003906.035156.007812.050781.011719.007812 0 .019531.003906.027344.003906.003906 0 .011718 0 .019531.003906 2.144531.433594 4.359375.664063 6.628906.664063h1.074219c7.269531 0 14.515625-1.800782 20.957031-5.203125 6.433594-3.398438 12-8.375 16.101563-14.402344l35.269531-51.839844c.808594.070313 1.613281.105469 2.414063.105469zm79.679688-156.699219-19.703125 38.132813c-1.765625 3.414062-4.753906 5.890625-8.207032 7.085937l19.195313-51.136718zm37.328125-118.03125c0-6.945312 5.648437-12.59375 12.597656-12.59375h9.058594c6.945312 0 12.597656 5.648438 12.597656 12.59375v26.203125c0 5.765625-3.894531 10.625-9.1875 12.117188l-14.425781.3125c-6.019531-.945313-10.640625-6.148438-10.640625-12.429688zm7.808594 291.394532-.476563 111.535156h-8.359375l-7.4375-113.035156c5.40625.753906 10.839844 1.257812 16.273438 1.5zm-11.578126 126.539062h11.785157v12.328125h-21.625zm26.785157 12.328125v-12.328125h11.785156l9.839844 12.328125zm8.390625-27.332031h-9.074219l.476563-111.527344c5.496093-.238281 10.960937-.730469 16.382812-1.480469zm46.082031-212.78125c-.257813.296875-.527344.574218-.8125.828125l-13.53125-66.933594h7.40625l8.917969 59.226563c.378906 2.511718-.324219 4.953124-1.980469 6.878906zm0 0"/></svg>