<svg height="480pt" viewBox="-80 0 480 480" width="480pt" xmlns="http://www.w3.org/2000/svg"><path d="m104 288-70.121094 21.574219c-20.136718 6.195312-33.878906 24.800781-33.878906 45.875v124.550781h320v-124.550781c0-21.074219-13.742188-39.679688-33.878906-45.882813l-70.121094-21.566406" fill="#d1a339"/><path d="m254.121094 309.574219-70.121094-21.574219h-80l-70.121094 21.574219c-20.136718 6.195312-33.878906 24.800781-33.878906 45.875v124.550781h288v-124.550781c0-21.074219-13.742188-39.679688-33.878906-45.875zm0 0" fill="#f0d365"/><path d="m112 392-56.65625-89.03125-21.464844 6.597656c-6.847656 2.105469-12.871094 5.738282-17.949218 10.320313l63.941406 100.128906" fill="#8892a0"/><path d="m223.175781 290.207031-7.175781-2.207031h-8l-48 48 40 16zm0 0" fill="#d1a339"/><path d="m120 352 40-16-48-48h-8l-7.175781 2.207031zm0 0" fill="#d1a339"/><path d="m246.550781 480c-5.941406-32.351562-29.574219-58.511719-60.503906-68.078125l-.75 1.503906c-6.113281 12.214844-9.296875 25.6875-9.296875 39.351563v27.222656h-32v-27.222656c0-13.664063-3.183594-27.136719-9.289062-39.351563l-.75-1.503906c-30.929688 9.566406-54.570313 35.726563-60.503907 68.078125h-32.394531c7.816406-58.710938 58.089844-104 118.9375-104s111.121094 45.289062 118.945312 104zm0 0" fill="#857970"/><path d="m200 296-40 40-40-40" fill="#efbe9a"/><path d="m248 224h16c17.671875 0 32-14.328125 32-32s-14.328125-32-32-32h-16" fill="#efbe9a"/><path d="m56 160-32-24v-48h272v48l-32 24" fill="#857970"/><path d="m72 224h-16c-17.671875 0-32-14.328125-32-32s14.328125-32 32-32h16" fill="#db9b7c"/><path d="m264 120v80c0 57.441406-46.558594 104-104 104s-104-46.558594-104-104v-80" fill="#db9b7c"/><path d="m148 303.257812c51.777344-5.960937 92-49.882812 92-103.257812v-80h-184v80c0 53.375 40.222656 97.296875 92 103.257812zm0 0" fill="#efbe9a"/><path d="m56 128v-8h208v8l-12.230469 5.238281c-28.882812 12.378907-59.96875 18.761719-91.386719 18.761719h-.757812c-31.417969 0-62.511719-6.382812-91.394531-18.761719zm0 0" fill="#f0d365"/><path d="m24 88-11.3125-11.3125c-3-3-4.6875-7.070312-4.6875-11.3125v-6.824219c0-6.398437 3.816406-12.183593 9.695312-14.703125l66.082032-28.320312c23.902344-10.246094 49.628906-15.527344 75.628906-15.527344h1.1875c26 0 51.734375 5.28125 75.628906 15.527344l66.082032 28.320312c5.878906 2.519532 9.695312 8.304688 9.695312 14.703125v6.824219c0 4.242188-1.6875 8.3125-4.6875 11.3125l-11.3125 11.3125" fill="#f0d365"/><path d="m152 184h16v32h-16zm0 0" fill="#857970"/><path d="m124 192c-6.617188 0-12-5.382812-12-12s5.382812-12 12-12 12 5.382812 12 12-5.382812 12-12 12zm0 0" fill="#857970"/><path d="m196 192c-6.617188 0-12-5.382812-12-12s5.382812-12 12-12 12 5.382812 12 12-5.382812 12-12 12zm0 0" fill="#857970"/><path d="m160 280c-30.878906 0-56-25.128906-56-56h16c0 22.054688 17.945312 40 40 40s40-17.945312 40-40h16c0 30.871094-25.121094 56-56 56zm0 0" fill="#857970"/><g fill="#fff"><path d="m152 48h16v16h-16zm0 0"/><path d="m168 32h16v16h-16zm0 0"/><path d="m184 48h16v16h-16zm0 0"/><path d="m136 32h16v16h-16zm0 0"/><path d="m120 48h16v16h-16zm0 0"/><path d="m200 32h16v16h-16zm0 0"/><path d="m104 32h16v16h-16zm0 0"/></g></svg>